<!-- icon666.com - MILLIONS vector ICONS FREE --><svg version="1.1" id="Layer_1" xmlns="http://www.w3.org/2000/svg" xmlns:xlink="http://www.w3.org/1999/xlink" x="0px" y="0px" viewBox="0 0 512 512" style="enable-background:new 0 0 512 512;" xml:space="preserve"><g><g><g><path d="M16,80h480c8.848,0,16-7.168,16-16c0-8.832-7.152-16-16-16H16C7.152,48,0,55.168,0,64C0,72.832,7.152,80,16,80z"></path><path d="M496,144H16c-8.848,0-16,7.168-16,16c0,8.832,7.152,16,16,16h480c8.848,0,16-7.168,16-16 C512,151.168,504.848,144,496,144z"></path><path d="M496,240H16c-8.848,0-16,7.168-16,16c0,8.832,7.152,16,16,16h480c8.848,0,16-7.168,16-16 C512,247.168,504.848,240,496,240z"></path><path d="M496,336H16c-8.848,0-16,7.168-16,16c0,8.832,7.152,16,16,16h480c8.848,0,16-7.168,16-16 C512,343.168,504.848,336,496,336z"></path><path d="M496,432H16c-8.848,0-16,7.168-16,16c0,8.832,7.152,16,16,16h480c8.848,0,16-7.168,16-16 C512,439.168,504.848,432,496,432z"></path></g></g></g></svg>