<!-- icon666.com - MILLIONS vector ICONS FREE --><svg version="1.1" id="Layer_1" xmlns="http://www.w3.org/2000/svg" xmlns:xlink="http://www.w3.org/1999/xlink" x="0px" y="0px" viewBox="0 0 64 64" enable-background="new 0 0 64 64" xml:space="preserve"><g id="Right-aligned-text"><path d="M63,13H23c-0.5522995,0-1,0.4476995-1,1c0,0.5522003,0.4477005,1,1,1h40c0.5521965,0,1-0.4477997,1-1 C64,13.4476995,63.5521965,13,63,13z"></path><path d="M1,2h62c0.5521965,0,1-0.4478,1-1c0-0.5523-0.4478035-1-1-1H1C0.4477,0,0,0.4477,0,1C0,1.5522,0.4477,2,1,2z"></path><path d="M63,25H1c-0.5523,0-1,0.4477005-1,1c0,0.5522003,0.4477,1,1,1h62c0.5521965,0,1-0.4477997,1-1 C64,25.4477005,63.5521965,25,63,25z"></path><path d="M63,37H23c-0.5522995,0-1,0.4477005-1,1c0,0.5522003,0.4477005,1,1,1h40c0.5521965,0,1-0.4477997,1-1 C64,37.4477005,63.5521965,37,63,37z"></path><path d="M63,49H1c-0.5523,0-1,0.4477005-1,1c0,0.5522003,0.4477,1,1,1h62c0.5521965,0,1-0.4477997,1-1 C64,49.4477005,63.5521965,49,63,49z"></path><path d="M63,62H35c-0.5522995,0-1,0.4477005-1,1c0,0.5522003,0.4477005,1,1,1h28c0.5521965,0,1-0.4477997,1-1 C64,62.4477005,63.5521965,62,63,62z"></path></g></svg>