<!-- icon666.com - MILLIONS vector ICONS FREE --><svg version="1.1" id="Layer_1" xmlns="http://www.w3.org/2000/svg" xmlns:xlink="http://www.w3.org/1999/xlink" x="0px" y="0px" viewBox="0 0 64 64" enable-background="new 0 0 64 64" xml:space="preserve"><g id="Align-center-text"><path d="M12.000001,13c-0.5528002,0-1,0.4476995-1,1c0,0.5522003,0.4471998,1,1,1h40c0.5527,0,1-0.4477997,1-1 c0-0.5523005-0.4473-1-1-1H12.000001z"></path><path d="M1.0000008,2h62c0.5527,0,1-0.4478,1-1c0-0.5523-0.4473-1-1-1h-62c-0.5528001,0-1,0.4477-1,1 C0.0000008,1.5522,0.4472008,2,1.0000008,2z"></path><path d="M63,25h-62c-0.5528001,0-1,0.4477005-1,1c0,0.5522003,0.4472,1,1,1h62c0.5527,0,1-0.4477997,1-1 C64,25.4477005,63.5527,25,63,25z"></path><path d="M52,39c0.5527,0,1-0.4477997,1-1c0-0.5522995-0.4473-1-1-1h-40c-0.5528002,0-1,0.4477005-1,1c0,0.5522003,0.4471998,1,1,1 H52z"></path><path d="M63,49h-62c-0.5528001,0-1,0.4477005-1,1c0,0.5522003,0.4472,1,1,1h62c0.5527,0,1-0.4477997,1-1 C64,49.4477005,63.5527,49,63,49z"></path><path d="M46,62H18c-0.5527992,0-1,0.4477005-1,1c0,0.5522003,0.4472008,1,1,1h28c0.5527,0,1-0.4477997,1-1 C47,62.4477005,46.5527,62,46,62z"></path></g></svg>