<!-- icon666.com - MILLIONS vector ICONS FREE --><svg version="1.1" id="Capa_1" xmlns="http://www.w3.org/2000/svg" xmlns:xlink="http://www.w3.org/1999/xlink" x="0px" y="0px" viewBox="0 0 455 455" style="enable-background:new 0 0 455 455;" xml:space="preserve"><g><path d="M447.5,60H7.5C3.358,60,0,63.358,0,67.5v320c0,4.142,3.358,7.5,7.5,7.5h440c4.142,0,7.5-3.358,7.5-7.5v-320 C455,63.358,451.642,60,447.5,60z M440,380H15V75h425V380z"></path><path d="M47.5,355h360c4.142,0,7.5-3.358,7.5-7.5v-240c0-4.142-3.358-7.5-7.5-7.5h-360c-4.142,0-7.5,3.358-7.5,7.5v40 c0,4.142,3.358,7.5,7.5,7.5s7.5-3.358,7.5-7.5V115h345v225H55V177.5c0-4.142-3.358-7.5-7.5-7.5s-7.5,3.358-7.5,7.5v170 C40,351.642,43.358,355,47.5,355z"></path><path d="M170.381,192c-2.059,0-4.027,0.846-5.443,2.341l-92.881,98c-2.85,3.006-2.722,7.753,0.284,10.603 c1.451,1.375,3.306,2.057,5.158,2.057c1.987,0,3.97-0.785,5.445-2.341l87.438-92.256l79.992,84.4 c1.416,1.495,3.384,2.341,5.443,2.341s4.027-0.846,5.443-2.341l56.002-59.088l54.795,57.815c2.849,3.006,7.597,3.135,10.603,0.284 c3.006-2.849,3.134-7.596,0.284-10.603l-60.238-63.559c-1.416-1.494-3.384-2.341-5.443-2.341s-4.027,0.846-5.443,2.341 l-56.002,59.088l-79.992-84.4C174.408,192.846,172.44,192,170.381,192z"></path><path d="M293.316,187.5c0-20.678-16.822-37.5-37.5-37.5s-37.5,16.822-37.5,37.5s16.822,37.5,37.5,37.5 S293.316,208.178,293.316,187.5z M233.316,187.5c0-12.407,10.093-22.5,22.5-22.5s22.5,10.093,22.5,22.5s-10.093,22.5-22.5,22.5 S233.316,199.907,233.316,187.5z"></path></g></svg>