<!-- icon666.com - MILLIONS vector ICONS FREE --><svg version="1.1" id="Capa_1" xmlns="http://www.w3.org/2000/svg" xmlns:xlink="http://www.w3.org/1999/xlink" x="0px" y="0px" viewBox="0 0 512.045 512.045" style="enable-background:new 0 0 512.045 512.045;" xml:space="preserve"><g><g><path d="M329.936,167.87c-0.83-31.93-27.52-58.62-59.45-59.5c-33.814-0.966-62.009,25.661-62.975,59.475 c-0.017,0.585-0.025,1.17-0.025,1.755c0,7.18,5.82,13,13,13c7.18,0,13-5.82,13-13c-0.003-19.468,15.777-35.252,35.245-35.254 c0.338,0,0.676,0.005,1.015,0.014c19.466,0.559,34.792,16.793,34.233,36.258c-0.376,13.073-7.956,24.863-19.693,30.632 c-17.44,8.401-28.534,26.042-28.55,45.4v15.63c0,7.18,5.82,13,13,13s13-5.82,13-13v-15.63c0.048-9.435,5.487-18.012,14-22.08 C317.211,213.95,330.56,191.82,329.936,167.87z"></path></g></g><g><g><path d="M268.756,299.13c-7.18,0-13,5.82-13,13v5.15c0,7.18,5.82,13,13,13s13-5.82,13-13v-5.15 C281.756,304.95,275.936,299.13,268.756,299.13z"></path></g></g><g><g><path d="M448.546,417.91l-26.08-91.38c34.71-38.989,52.401-90.231,49.14-142.33l0.03,0.01C464.904,81.075,379.629,0.667,276.276,0 h-0.57C167.298,0,79.416,87.882,79.416,196.29c0.014,10.656-2.228,21.194-6.58,30.92l-30.27,67.9 c-6.498,14.585,0.058,31.675,14.642,38.173c0.875,0.39,1.769,0.736,2.678,1.037l19.53,6.46v60.34c0,25.405,20.595,46,46,46h61.08 l12,42.2c4.735,16.62,22.046,26.255,38.666,21.52c0.011-0.003,0.023-0.007,0.034-0.01l189.83-54.22 c16.629-4.743,26.264-22.069,21.521-38.697C448.547,417.912,448.546,417.911,448.546,417.91z M419.916,431.56l-189.89,54.23 c-2.819,0.797-5.751-0.835-6.56-3.65l-14.73-51.63c-1.594-5.582-6.695-9.43-12.5-9.43h-70.86c-11.046,0-20-8.954-20-20V331.4 c-0.001-5.606-3.597-10.58-8.92-12.34l-28.43-9.42c-1.525-0.508-2.349-2.156-1.84-3.681c0.029-0.088,0.063-0.174,0.1-0.259 l30.27-67.9c5.84-13.055,8.849-27.198,8.83-41.5c-0.005-94.049,76.231-170.294,170.28-170.3c0.013,0,0.027,0,0.04,0h0.5 c89.67,0.25,164.11,70.43,169.48,159.77c3.1,47.498-13.997,94.097-47.08,128.32l0.03,0c-3.198,3.335-4.386,8.116-3.12,12.56 l28.05,98.35C424.369,427.819,422.735,430.756,419.916,431.56z"></path></g></g></svg>